<svg id="svg" version="1.1" width="787" height="124" xmlns="http://www.w3.org/2000/svg" xmlns:xlink="http://www.w3.org/1999/xlink" ><g id="svgg"><path id="path0" d="M51.451 1.581 C 47.378 3.088,50.552 16.651,56.999 25.286 C 58.094 26.753,58.770 27.954,58.500 27.954 C 58.230 27.954,54.849 28.547,50.987 29.270 C 47.125 29.994,42.135 30.691,39.898 30.819 L 35.832 31.051 32.783 26.909 C 28.081 20.522,19.085 12.640,13.716 10.205 C 5.519 6.487,2.829 14.542,9.742 22.105 C 17.937 31.072,33.321 35.068,48.793 32.248 C 57.684 30.628,57.225 30.313,52.481 34.781 C 42.630 44.059,39.661 51.306,45.533 51.740 C 51.135 52.154,64.549 38.051,64.549 31.748 L 64.549 29.840 67.980 30.153 C 69.867 30.325,73.469 31.138,75.985 31.959 C 78.501 32.780,83.990 33.962,88.183 34.586 C 92.376 35.211,95.860 35.761,95.924 35.809 C 95.988 35.857,94.721 37.255,93.107 38.914 C 84.642 47.621,80.618 57.628,84.968 59.157 C 89.567 60.775,101.607 46.610,102.609 38.402 L 102.922 35.832 107.243 35.235 C 109.619 34.907,112.935 34.619,114.612 34.596 C 116.290 34.572,121.207 33.985,125.540 33.291 C 129.873 32.597,133.568 32.027,133.752 32.025 C 133.936 32.022,132.649 33.458,130.892 35.214 C 125.056 41.051,120.132 49.560,120.539 53.106 C 121.593 62.280,138.966 45.612,140.133 34.309 L 140.422 31.512 147.085 31.527 C 155.771 31.546,165.576 32.279,170.283 33.260 C 177.306 34.725,175.748 32.495,168.230 30.324 C 160.229 28.013,154.129 27.627,141.374 28.623 C 140.301 28.707,140.087 28.351,139.251 25.089 C 137.134 16.827,129.774 5.782,125.706 4.761 C 119.206 3.130,122.236 17.011,130.413 26.327 C 133.277 29.589,133.725 29.227,125.924 29.947 C 122.361 30.276,117.733 30.993,115.639 31.542 C 113.545 32.090,109.793 32.683,107.301 32.860 L 102.771 33.182 102.156 30.187 C 100.287 21.082,91.688 8.132,87.511 8.132 C 82.126 8.132,84.467 18.695,92.102 28.839 C 94.975 32.658,95.000 32.650,86.565 30.462 C 82.311 29.359,78.317 28.739,72.873 28.338 L 65.186 27.772 64.875 24.422 C 63.824 13.118,56.045 -0.119,51.451 1.581 M346.317 1.761 C 342.294 3.476,336.317 16.006,335.623 24.179 L 335.317 27.773 327.633 28.352 C 322.306 28.753,318.101 29.404,313.923 30.475 C 310.608 31.325,307.360 32.020,306.704 32.020 L 305.512 32.020 306.816 30.623 C 314.690 22.177,318.670 8.132,313.189 8.132 C 308.837 8.132,300.043 20.968,298.255 29.929 L 297.608 33.175 293.023 32.854 C 290.501 32.678,286.722 32.079,284.625 31.524 C 282.529 30.969,277.795 30.244,274.107 29.913 L 267.401 29.311 269.533 26.932 C 277.902 17.592,281.150 4.574,275.111 4.574 C 271.553 4.574,262.907 17.369,261.031 25.410 C 260.124 29.298,260.663 28.962,256.163 28.441 C 247.447 27.430,238.268 28.272,230.750 30.770 C 223.317 33.239,223.843 34.382,231.766 32.980 C 235.257 32.363,241.080 31.918,248.599 31.695 L 260.095 31.354 260.325 34.356 C 260.964 42.690,273.076 57.306,277.929 55.600 C 282.325 54.054,278.227 44.033,269.600 35.235 C 267.867 33.467,266.593 32.022,266.769 32.025 C 266.946 32.027,270.635 32.597,274.968 33.291 C 279.301 33.985,284.333 34.572,286.150 34.595 C 287.967 34.619,291.259 34.907,293.466 35.235 L 297.478 35.832 297.676 37.764 C 298.430 45.126,309.446 59.466,314.348 59.466 C 320.443 59.466,316.146 47.586,306.704 38.332 L 304.068 35.749 311.574 34.643 C 315.702 34.035,321.448 32.830,324.343 31.965 C 327.238 31.100,330.879 30.274,332.434 30.128 L 335.262 29.863 335.893 32.686 C 337.466 39.714,349.291 51.842,354.569 51.842 C 361.534 51.842,355.911 40.350,344.912 32.103 C 343.101 30.745,343.874 30.681,348.666 31.790 C 366.876 36.004,387.545 29.804,393.434 18.360 C 396.593 12.222,393.074 7.408,387.229 9.871 C 382.104 12.029,371.489 21.306,367.217 27.360 L 364.676 30.960 361.821 30.982 C 360.251 30.994,356.020 30.458,352.419 29.790 C 348.817 29.122,344.770 28.420,343.425 28.229 L 340.979 27.882 342.978 25.713 C 347.416 20.899,352.249 6.830,350.571 3.613 C 349.497 1.555,348.162 0.974,346.317 1.761 M54.385 4.693 C 56.706 7.184,63.532 24.029,63.532 27.264 C 63.532 31.466,55.102 20.380,52.506 12.764 C 50.236 6.103,51.328 1.411,54.385 4.693 M348.866 4.362 C 350.430 8.439,344.776 21.929,339.406 26.932 C 336.290 29.835,336.323 27.973,339.554 18.493 C 343.549 6.773,347.494 0.787,348.866 4.362 M127.068 8.259 C 129.908 11.105,138.247 26.216,138.247 28.517 C 138.247 32.347,128.478 22.266,125.370 15.229 C 122.404 8.511,123.368 4.552,127.068 8.259 M276.482 7.603 C 278.651 11.656,267.485 29.413,263.097 28.890 L 261.644 28.717 265.978 20.064 C 271.469 9.100,275.025 4.882,276.482 7.603 M89.202 11.274 C 91.236 12.874,94.127 17.570,97.871 25.356 C 101.697 33.313,101.494 32.529,99.725 32.529 C 98.178 32.529,95.871 30.406,92.024 25.443 C 86.017 17.694,83.909 7.111,89.202 11.274 M314.009 12.391 C 314.464 17.795,304.823 32.529,300.831 32.529 C 298.894 32.529,298.854 32.660,303.769 22.803 C 309.148 12.016,313.597 7.491,314.009 12.391 M14.670 13.372 C 18.362 15.569,34.172 30.580,33.501 31.251 C 32.248 32.504,16.219 26.081,12.559 22.859 C 4.859 16.081,6.538 8.533,14.670 13.372 M392.192 12.488 C 392.993 13.710,392.993 13.967,392.198 16.488 C 390.393 22.217,385.350 25.808,373.628 29.714 C 365.017 32.583,365.030 32.141,373.801 23.757 C 386.081 12.017,390.221 9.480,392.192 12.488 M208.020 14.725 C 206.254 15.802,203.988 18.651,201.851 22.483 C 200.366 25.146,199.967 25.386,199.496 23.901 C 196.501 14.464,185.006 11.352,185.006 19.977 C 185.006 25.568,193.017 43.067,197.017 46.213 C 203.070 50.974,214.036 37.599,215.761 23.352 C 216.603 16.398,212.597 11.934,208.020 14.725 M211.436 19.852 C 211.436 20.707,211.226 21.277,210.970 21.119 C 210.714 20.961,209.914 21.056,209.191 21.331 C 207.514 21.968,207.529 21.512,209.244 19.723 C 210.990 17.901,211.436 17.927,211.436 19.852 M190.415 20.576 C 190.338 21.550,190.130 22.492,189.953 22.669 C 189.496 23.126,188.903 20.489,189.256 19.569 C 189.803 18.144,190.555 18.797,190.415 20.576 M210.035 26.485 C 209.876 28.608,206.687 36.389,205.268 38.119 C 204.469 39.093,204.300 39.163,204.543 38.417 C 204.718 37.881,205.332 35.251,205.909 32.572 C 207.353 25.855,210.424 21.326,210.035 26.485 M195.000 32.361 C 194.885 32.477,194.394 31.589,193.909 30.390 C 192.503 26.912,192.504 26.451,193.912 29.418 C 194.626 30.922,195.115 32.246,195.000 32.361 M63.532 30.512 C 63.532 32.755,56.975 42.684,53.429 45.810 C 47.736 50.829,43.144 51.295,45.568 46.608 C 48.379 41.170,63.532 27.593,63.532 30.512 M343.500 34.348 C 354.064 43.727,358.263 49.809,354.174 49.809 C 350.079 49.809,342.304 42.032,338.064 33.692 C 335.468 28.588,337.256 28.803,343.500 34.348 M138.755 33.009 C 138.755 38.356,129.115 52.487,124.713 53.592 C 119.915 54.796,122.902 48.591,132.624 37.155 C 137.647 31.247,138.755 30.497,138.755 33.009 M266.180 35.451 C 276.228 46.700,280.280 53.875,276.585 53.875 C 272.484 53.875,261.753 38.954,261.753 33.250 C 261.753 30.786,262.222 31.020,266.180 35.451 M101.144 37.083 C 101.144 43.629,86.916 61.132,85.209 56.685 C 84.427 54.646,87.147 50.114,94.128 41.825 C 99.541 35.399,101.144 34.316,101.144 37.083 M305.785 41.296 C 313.215 49.887,316.358 55.382,314.759 56.982 C 312.171 59.570,301.978 46.988,299.317 37.920 C 298.105 33.787,300.267 34.916,305.785 41.296 " stroke="none" fill="#ffffff" fill-rule="evenodd"></path></g></svg>