<svg xmlns="http://www.w3.org/2000/svg" xmlns:xlink="http://www.w3.org/1999/xlink" version="1.1" width="389" height="58" style=""><rect id="backgroundrect" width="100%" height="100%" x="0" y="0" fill="none" stroke="none"/><g class="currentLayer" style=""><title>Layer 1</title><g id="svgg" class=""><path id="path0" d="M45.65852763748169,0.15701594924926754 C41.58552763748169,1.6640159492492677 44.75952763748169,15.227015949249267 51.20652763748169,23.86201594924927 C52.30152763748169,25.329015949249268 52.97752763748169,26.530015949249268 52.70752763748169,26.530015949249268 C52.437527637481686,26.530015949249268 49.056527637481686,27.123015949249268 45.19452763748169,27.846015949249267 C41.33252763748169,28.570015949249267 36.34252763748169,29.267015949249267 34.10552763748169,29.395015949249267 L30.03952763748169,29.627015949249266 L26.99052763748169,25.485015949249266 C22.28852763748169,19.098015949249266 13.29252763748169,11.216015949249268 7.923527637481689,8.781015949249268 C-0.2734723625183104,5.063015949249268 -2.9634723625183104,13.118015949249267 3.9495276374816903,20.681015949249268 C12.14452763748169,29.648015949249267 27.528527637481687,33.644015949249265 43.00052763748169,30.824015949249265 C51.89152763748169,29.204015949249268 51.43252763748169,28.889015949249266 46.68852763748169,33.357015949249266 C36.83752763748169,42.635015949249265 33.86852763748169,49.882015949249265 39.74052763748169,50.31601594924927 C45.34252763748169,50.73001594924927 58.756527637481696,36.62701594924927 58.756527637481696,30.32401594924927 L58.756527637481696,28.416015949249267 L62.18752763748169,28.729015949249266 C64.0745276374817,28.901015949249267 67.67652763748168,29.71401594924927 70.19252763748169,30.535015949249267 C72.7085276374817,31.35601594924927 78.19752763748168,32.53801594924927 82.3905276374817,33.162015949249266 C86.5835276374817,33.787015949249266 90.06752763748169,34.33701594924927 90.1315276374817,34.385015949249265 C90.19552763748169,34.43301594924927 88.9285276374817,35.83101594924927 87.31452763748169,37.49001594924927 C78.84952763748169,46.19701594924927 74.82552763748168,56.20401594924927 79.1755276374817,57.733015949249264 C83.77452763748168,59.351015949249266 95.81452763748169,45.18601594924927 96.81652763748168,36.97801594924927 L97.12952763748169,34.40801594924927 L101.45052763748168,33.81101594924927 C103.82652763748169,33.483015949249264 107.14252763748169,33.19501594924927 108.81952763748168,33.17201594924927 C110.4975276374817,33.14801594924927 115.41452763748168,32.56101594924927 119.7475276374817,31.867015949249264 C124.08052763748168,31.17301594924927 127.7755276374817,30.60301594924927 127.9595276374817,30.601015949249266 C128.1435276374817,30.598015949249266 126.85652763748169,32.034015949249266 125.09952763748169,33.790015949249266 C119.26352763748169,39.62701594924927 114.3395276374817,48.13601594924927 114.74652763748169,51.68201594924927 C115.8005276374817,60.85601594924927 133.1735276374817,44.18801594924927 134.3405276374817,32.885015949249265 L134.6295276374817,30.088015949249268 L141.2925276374817,30.10301594924927 C149.97852763748168,30.122015949249267 159.78352763748168,30.85501594924927 164.49052763748168,31.836015949249266 C171.5135276374817,33.30101594924927 169.95552763748168,31.071015949249265 162.43752763748168,28.90001594924927 C154.4365276374817,26.58901594924927 148.33652763748168,26.203015949249266 135.58152763748168,27.19901594924927 C134.50852763748168,27.28301594924927 134.29452763748168,26.927015949249267 133.4585276374817,23.665015949249266 C131.34152763748168,15.40301594924927 123.98152763748169,4.358015949249268 119.91352763748169,3.3370159492492677 C113.41352763748169,1.7060159492492675 116.4435276374817,15.587015949249267 124.6205276374817,24.90301594924927 C127.48452763748168,28.165015949249266 127.93252763748168,27.803015949249268 120.1315276374817,28.523015949249267 C116.5685276374817,28.852015949249267 111.9405276374817,29.569015949249266 109.84652763748169,30.11801594924927 C107.75252763748169,30.66601594924927 104.0005276374817,31.259015949249267 101.50852763748169,31.436015949249267 L96.97852763748169,31.75801594924927 L96.3635276374817,28.76301594924927 C94.4945276374817,19.65801594924927 85.89552763748169,6.708015949249267 81.71852763748169,6.708015949249267 C76.3335276374817,6.708015949249267 78.67452763748169,17.271015949249268 86.3095276374817,27.415015949249266 C89.18252763748168,31.23401594924927 89.20752763748169,31.226015949249266 80.77252763748169,29.038015949249267 C76.5185276374817,27.93501594924927 72.52452763748168,27.31501594924927 67.0805276374817,26.91401594924927 L59.3935276374817,26.348015949249266 L59.08252763748169,22.998015949249268 C58.03152763748169,11.694015949249268 50.25252763748169,-1.5429840507507324 45.65852763748169,0.15701594924926754 M340.5245276374817,0.3370159492492677 C336.5015276374817,2.0520159492492676 330.5245276374817,14.582015949249268 329.8305276374817,22.755015949249266 L329.5245276374817,26.349015949249267 L321.84052763748167,26.928015949249268 C316.5135276374817,27.329015949249268 312.3085276374817,27.980015949249267 308.1305276374817,29.05101594924927 C304.8155276374817,29.901015949249267 301.5675276374817,30.59601594924927 300.9115276374817,30.59601594924927 L299.7195276374817,30.59601594924927 L301.02352763748166,29.19901594924927 C308.8975276374817,20.753015949249267 312.8775276374817,6.708015949249267 307.3965276374817,6.708015949249267 C303.0445276374817,6.708015949249267 294.2505276374817,19.544015949249268 292.4625276374817,28.505015949249266 L291.8155276374817,31.751015949249265 L287.2305276374817,31.430015949249267 C284.70852763748167,31.254015949249265 280.92952763748167,30.655015949249268 278.8325276374817,30.10001594924927 C276.7365276374817,29.54501594924927 272.0025276374817,28.820015949249267 268.3145276374817,28.489015949249268 L261.6085276374817,27.887015949249268 L263.7405276374817,25.508015949249266 C272.1095276374817,16.168015949249266 275.35752763748167,3.1500159492492674 269.3185276374817,3.1500159492492674 C265.7605276374817,3.1500159492492674 257.1145276374817,15.945015949249267 255.2385276374817,23.986015949249268 C254.3315276374817,27.87401594924927 254.8705276374817,27.538015949249267 250.3705276374817,27.017015949249267 C241.6545276374817,26.006015949249267 232.4755276374817,26.848015949249266 224.9575276374817,29.346015949249267 C217.5245276374817,31.815015949249265 218.05052763748168,32.958015949249265 225.97352763748168,31.556015949249264 C229.4645276374817,30.939015949249267 235.2875276374817,30.494015949249267 242.80652763748168,30.271015949249268 L254.30252763748172,29.930015949249267 L254.53252763748168,32.93201594924927 C255.1715276374817,41.266015949249265 267.2835276374817,55.882015949249265 272.13652763748166,54.17601594924927 C276.5325276374817,52.63001594924927 272.43452763748166,42.60901594924927 263.8075276374817,33.81101594924927 C262.0745276374817,32.043015949249266 260.8005276374817,30.598015949249266 260.9765276374817,30.601015949249266 C261.1535276374817,30.60301594924927 264.8425276374817,31.17301594924927 269.1755276374817,31.867015949249264 C273.5085276374817,32.56101594924927 278.5405276374817,33.14801594924927 280.35752763748167,33.171015949249266 C282.1745276374817,33.19501594924927 285.4665276374817,33.483015949249264 287.6735276374817,33.81101594924927 L291.6855276374817,34.40801594924927 L291.8835276374817,36.34001594924927 C292.6375276374817,43.702015949249265 303.6535276374817,58.04201594924927 308.5555276374817,58.04201594924927 C314.6505276374817,58.04201594924927 310.3535276374817,46.162015949249266 300.9115276374817,36.90801594924927 L298.2755276374817,34.32501594924927 L305.7815276374817,33.21901594924927 C309.9095276374817,32.611015949249264 315.65552763748167,31.406015949249266 318.5505276374817,30.541015949249267 C321.4455276374817,29.67601594924927 325.0865276374817,28.85001594924927 326.6415276374817,28.704015949249268 L329.4695276374817,28.439015949249267 L330.10052763748166,31.262015949249268 C331.6735276374817,38.290015949249266 343.4985276374817,50.418015949249266 348.7765276374817,50.418015949249266 C355.7415276374817,50.418015949249266 350.1185276374817,38.92601594924927 339.11952763748167,30.67901594924927 C337.3085276374817,29.32101594924927 338.0815276374817,29.25701594924927 342.8735276374817,30.366015949249267 C361.08352763748167,34.580015949249265 381.7525276374817,28.380015949249266 387.6415276374817,16.936015949249267 C390.8005276374817,10.798015949249267 387.2815276374817,5.984015949249268 381.4365276374817,8.447015949249268 C376.3115276374817,10.605015949249267 365.69652763748167,19.88201594924927 361.4245276374817,25.936015949249267 L358.8835276374817,29.53601594924927 L356.0285276374817,29.558015949249267 C354.45852763748167,29.570015949249267 350.22752763748167,29.034015949249266 346.6265276374817,28.366015949249267 C343.0245276374817,27.698015949249267 338.97752763748167,26.99601594924927 337.6325276374817,26.805015949249267 L335.1865276374817,26.45801594924927 L337.1855276374817,24.28901594924927 C341.6235276374817,19.47501594924927 346.4565276374817,5.406015949249268 344.7785276374817,2.1890159492492676 C343.7045276374817,0.13101594924926774 342.36952763748167,-0.44998405075073244 340.5245276374817,0.3370159492492677 M48.59252763748169,3.269015949249268 C50.91352763748169,5.760015949249268 57.739527637481686,22.605015949249267 57.739527637481686,25.840015949249267 C57.739527637481686,30.04201594924927 49.309527637481686,18.956015949249267 46.71352763748169,11.340015949249267 C44.44352763748169,4.679015949249267 45.53552763748169,-0.01298405075073239 48.59252763748169,3.269015949249268 M343.0735276374817,2.9380159492492677 C344.6375276374817,7.015015949249268 338.9835276374817,20.505015949249266 333.6135276374817,25.508015949249266 C330.4975276374817,28.41101594924927 330.53052763748167,26.549015949249267 333.76152763748166,17.069015949249266 C337.75652763748167,5.349015949249267 341.7015276374817,-0.6369840507507324 343.0735276374817,2.9380159492492677 M121.27552763748169,6.835015949249268 C124.11552763748168,9.681015949249268 132.4545276374817,24.79201594924927 132.4545276374817,27.093015949249267 C132.4545276374817,30.92301594924927 122.6855276374817,20.842015949249266 119.5775276374817,13.805015949249267 C116.61152763748169,7.087015949249267 117.57552763748168,3.128015949249267 121.27552763748169,6.835015949249268 M270.6895276374817,6.179015949249267 C272.8585276374817,10.232015949249268 261.6925276374817,27.989015949249268 257.30452763748167,27.466015949249268 L255.8515276374817,27.293015949249266 L260.1855276374817,18.640015949249268 C265.6765276374817,7.676015949249267 269.23252763748167,3.4580159492492673 270.6895276374817,6.179015949249267 M83.40952763748169,9.850015949249268 C85.4435276374817,11.450015949249268 88.33452763748168,16.146015949249268 92.07852763748168,23.93201594924927 C95.90452763748169,31.88901594924927 95.70152763748169,31.10501594924927 93.93252763748168,31.10501594924927 C92.38552763748169,31.10501594924927 90.07852763748168,28.982015949249266 86.23152763748169,24.01901594924927 C80.22452763748169,16.270015949249267 78.1165276374817,5.687015949249267 83.40952763748169,9.850015949249268 M308.2165276374817,10.967015949249268 C308.6715276374817,16.37101594924927 299.03052763748167,31.10501594924927 295.0385276374817,31.10501594924927 C293.1015276374817,31.10501594924927 293.0615276374817,31.236015949249264 297.9765276374817,21.37901594924927 C303.3555276374817,10.592015949249268 307.80452763748167,6.067015949249267 308.2165276374817,10.967015949249268 M8.87752763748169,11.948015949249267 C12.569527637481688,14.145015949249268 28.379527637481686,29.156015949249266 27.708527637481687,29.82701594924927 C26.455527637481687,31.080015949249265 10.42652763748169,24.657015949249267 6.766527637481689,21.43501594924927 C-0.9334723625183106,14.657015949249267 0.7455276374816897,7.109015949249267 8.87752763748169,11.948015949249267 M386.3995276374817,11.064015949249267 C387.2005276374817,12.286015949249268 387.2005276374817,12.543015949249268 386.40552763748167,15.064015949249267 C384.60052763748166,20.793015949249266 379.5575276374817,24.384015949249267 367.8355276374817,28.290015949249266 C359.2245276374817,31.159015949249266 359.23752763748166,30.717015949249266 368.0085276374817,22.33301594924927 C380.2885276374817,10.593015949249267 384.4285276374817,8.056015949249268 386.3995276374817,11.064015949249267 M202.2275276374817,13.301015949249267 C200.46152763748168,14.378015949249267 198.1955276374817,17.227015949249267 196.0585276374817,21.059015949249268 C194.5735276374817,23.72201594924927 194.1745276374817,23.962015949249267 193.7035276374817,22.477015949249267 C190.7085276374817,13.040015949249268 179.2135276374817,9.928015949249268 179.2135276374817,18.553015949249268 C179.2135276374817,24.14401594924927 187.22452763748169,41.64301594924927 191.22452763748169,44.78901594924927 C197.27752763748168,49.550015949249264 208.2435276374817,36.175015949249264 209.96852763748169,21.928015949249268 C210.8105276374817,14.974015949249267 206.8045276374817,10.510015949249267 202.2275276374817,13.301015949249267 M205.6435276374817,18.428015949249268 C205.6435276374817,19.28301594924927 205.4335276374817,19.85301594924927 205.1775276374817,19.695015949249267 C204.9215276374817,19.537015949249266 204.12152763748168,19.63201594924927 203.3985276374817,19.907015949249267 C201.7215276374817,20.544015949249268 201.7365276374817,20.088015949249268 203.4515276374817,18.299015949249267 C205.1975276374817,16.477015949249267 205.6435276374817,16.503015949249267 205.6435276374817,18.428015949249268 M184.62252763748168,19.152015949249268 C184.54552763748168,20.12601594924927 184.33752763748168,21.06801594924927 184.1605276374817,21.245015949249268 C183.7035276374817,21.70201594924927 183.11052763748168,19.06501594924927 183.4635276374817,18.145015949249267 C184.0105276374817,16.720015949249266 184.7625276374817,17.373015949249268 184.62252763748168,19.152015949249268 M204.2425276374817,25.061015949249267 C204.0835276374817,27.184015949249268 200.8945276374817,34.96501594924927 199.4755276374817,36.69501594924927 C198.67652763748168,37.66901594924927 198.5075276374817,37.739015949249264 198.7505276374817,36.99301594924927 C198.92552763748168,36.45701594924927 199.53952763748168,33.827015949249265 200.11652763748168,31.14801594924927 C201.5605276374817,24.431015949249268 204.6315276374817,19.902015949249268 204.2425276374817,25.061015949249267 M189.2075276374817,30.937015949249265 C189.09252763748168,31.053015949249264 188.6015276374817,30.165015949249266 188.11652763748168,28.966015949249268 C186.71052763748168,25.488015949249267 186.71152763748168,25.027015949249268 188.1195276374817,27.994015949249267 C188.8335276374817,29.498015949249268 189.3225276374817,30.82201594924927 189.2075276374817,30.937015949249265 M57.739527637481686,29.088015949249268 C57.739527637481686,31.33101594924927 51.18252763748169,41.260015949249265 47.63652763748169,44.38601594924927 C41.94352763748169,49.40501594924927 37.35152763748169,49.87101594924927 39.77552763748169,45.184015949249265 C42.58652763748169,39.74601594924927 57.739527637481686,26.169015949249268 57.739527637481686,29.088015949249268 M337.7075276374817,32.92401594924927 C348.2715276374817,42.303015949249264 352.47052763748167,48.385015949249265 348.38152763748167,48.385015949249265 C344.2865276374817,48.385015949249265 336.51152763748166,40.608015949249264 332.2715276374817,32.26801594924927 C329.6755276374817,27.16401594924927 331.46352763748166,27.37901594924927 337.7075276374817,32.92401594924927 M132.96252763748168,31.585015949249268 C132.96252763748168,36.93201594924927 123.3225276374817,51.06301594924927 118.92052763748168,52.168015949249266 C114.1225276374817,53.37201594924927 117.10952763748169,47.16701594924927 126.83152763748168,35.73101594924927 C131.85452763748168,29.823015949249267 132.96252763748168,29.073015949249267 132.96252763748168,31.585015949249268 M260.3875276374817,34.02701594924927 C270.4355276374817,45.27601594924927 274.48752763748166,52.45101594924927 270.79252763748167,52.45101594924927 C266.69152763748167,52.45101594924927 255.96052763748168,37.53001594924927 255.96052763748168,31.826015949249268 C255.96052763748168,29.36201594924927 256.42952763748167,29.596015949249267 260.3875276374817,34.02701594924927 M95.3515276374817,35.659015949249266 C95.3515276374817,42.205015949249265 81.12352763748169,59.708015949249265 79.41652763748169,55.26101594924927 C78.6345276374817,53.22201594924927 81.3545276374817,48.690015949249265 88.33552763748169,40.40101594924927 C93.74852763748169,33.97501594924927 95.3515276374817,32.89201594924927 95.3515276374817,35.659015949249266 M299.9925276374817,39.87201594924927 C307.42252763748166,48.46301594924927 310.5655276374817,53.958015949249265 308.9665276374817,55.55801594924927 C306.3785276374817,58.14601594924927 296.1855276374817,45.56401594924927 293.5245276374817,36.49601594924927 C292.3125276374817,32.36301594924927 294.4745276374817,33.492015949249264 299.9925276374817,39.87201594924927 " stroke="none" fill="#ffffff" fill-rule="evenodd"/></g></g></svg>